<svg width="85" height="98" viewBox="0 0 85 98" fill="none" xmlns="http://www.w3.org/2000/svg">
<g opacity="0.45" filter="url(#filter0_d)">
<path fill-rule="evenodd" clip-rule="evenodd" d="M75.3726 63.0794C71.3069 69.4093 50.9041 68.8324 42.4609 68.8324C34.0188 68.8324 15.4122 68.8325 9.54921 63.0794C4.39094 57.9543 4 40.0086 4 34.4162C4 28.8228 4.39094 10.8771 9.54921 5.82651C15.4122 0 34.0188 0 42.4609 0C50.9041 0 69.5096 0 75.3726 5.82651C80.5319 10.8771 81 28.8218 81 34.4162C81 40.0086 80.5319 57.9543 75.3726 63.0794ZM71.3069 9.86696C67.7884 6.37042 53.5614 5.74986 42.4609 5.74986C31.3604 5.74986 17.1324 6.37042 13.6932 9.86696C10.9566 12.5854 9.70664 25.1709 9.70664 34.4162C9.70664 43.6605 10.9576 56.247 13.6932 58.9655C17.1324 62.4599 31.3604 63.1592 42.4609 63.1592C53.5614 63.1592 67.7884 62.4599 71.3069 58.9655C74.0434 56.246 75.2152 43.6605 75.2152 34.4162C75.2162 25.1709 74.0434 12.5854 71.3069 9.86696ZM65.3656 41.8734H19.5562L16.7414 19.8106L30.7349 29.4434L42.4609 17.7137L54.2651 29.4444L68.2586 19.8116L65.3656 41.8734ZM64.2721 50.4971H20.729L20.0253 45.6807H64.8976L64.2721 50.4971ZM53.797 35.1932L42.4609 24.0064L31.1269 35.1932L22.5273 29.1336L23.5427 37.1358H61.3791L62.4727 29.1336L53.797 35.1932Z" fill="#CFCCC7"/>
<path d="M26.2171 84.8176C26.2171 85.1979 26.2699 85.5347 26.3755 85.828C26.4907 86.1105 26.6396 86.3495 26.822 86.5451C27.014 86.7298 27.2301 86.871 27.4702 86.9688C27.7102 87.0666 27.9599 87.1155 28.2191 87.1155C28.5552 87.1155 28.8433 87.0883 29.0833 87.034C29.333 86.9797 29.5538 86.9036 29.7459 86.8059C29.8515 86.7515 29.9667 86.6863 30.0915 86.6103C30.226 86.5342 30.3604 86.4853 30.4948 86.4636C30.7541 86.4093 30.9893 86.431 31.2006 86.5288C31.4118 86.6266 31.5895 86.8113 31.7335 87.0829C31.916 87.4197 31.9592 87.7565 31.8631 88.0933C31.7767 88.4301 31.6087 88.7126 31.359 88.9408C30.9557 89.3102 30.4708 89.5764 29.9043 89.7394C29.3378 89.9132 28.776 90.0001 28.2191 90.0001C27.595 90.0001 26.9852 89.9078 26.3899 89.7231C25.7946 89.5384 25.2617 89.245 24.7911 88.843C24.3302 88.4301 23.9558 87.9086 23.6677 87.2785C23.3892 86.6374 23.25 85.866 23.25 84.9643V81.5744C23.25 80.6726 23.3892 79.9067 23.6677 79.2765C23.9558 78.6355 24.3302 78.114 24.7911 77.712C25.2617 77.2991 25.7946 77.0003 26.3899 76.8156C26.9852 76.6309 27.595 76.5386 28.2191 76.5386C28.8625 76.5386 29.4242 76.6146 29.9043 76.7667C30.394 76.9188 30.7781 77.109 31.0566 77.3371C31.3542 77.5762 31.5607 77.8749 31.6759 78.2335C31.7911 78.5812 31.7623 78.9288 31.5895 79.2765C31.4454 79.559 31.2534 79.76 31.0134 79.8795C30.7733 79.999 30.5284 80.0316 30.2788 79.9773C30.1155 79.9447 29.9667 79.8958 29.8323 79.8306C29.7075 79.7546 29.5922 79.6894 29.4866 79.6351C29.3138 79.559 29.1313 79.5047 28.9393 79.4721C28.7568 79.4395 28.5168 79.4232 28.2191 79.4232C27.9599 79.4232 27.7102 79.4721 27.4702 79.5699C27.2301 79.6676 27.014 79.8143 26.822 80.0099C26.6396 80.1946 26.4907 80.4336 26.3755 80.727C26.2699 81.0095 26.2171 81.3408 26.2171 81.7211V84.8176Z" fill="#CFCCC7"/>
<path d="M35.9958 77.8912C36.1398 77.4349 36.3846 77.0981 36.7303 76.8808C37.0856 76.6527 37.4601 76.5386 37.8538 76.5386C38.2187 76.5386 38.5691 76.6527 38.9052 76.8808C39.2509 77.109 39.4909 77.4458 39.6254 77.8912L43.3846 89.7231H40.2159L39.6542 87.7022H35.9525L35.4052 89.7231H32.2941L35.9958 77.8912ZM36.7015 84.948H38.9052L37.8106 80.8899L36.7015 84.948Z" fill="#CFCCC7"/>
<path d="M44.1556 89.7231V79.1787C44.1556 78.7115 44.1892 78.315 44.2565 77.989C44.3333 77.6631 44.4581 77.3969 44.6309 77.1905C44.8038 76.984 45.0342 76.8374 45.3223 76.7504C45.6104 76.6527 45.9705 76.6038 46.4025 76.6038H51.1988C51.4101 76.6038 51.5877 76.6472 51.7318 76.7341C51.8758 76.8211 51.9958 76.9351 52.0918 77.0764C52.1879 77.2176 52.2551 77.3752 52.2935 77.549C52.3415 77.7228 52.3655 77.8912 52.3655 78.0542C52.3655 78.2172 52.3415 78.3856 52.2935 78.5594C52.2551 78.7224 52.1879 78.8745 52.0918 79.0158C52.0054 79.1461 51.8854 79.2548 51.7318 79.3417C51.5877 79.4178 51.4101 79.4558 51.1988 79.4558H47.5404C47.3772 79.4558 47.2667 79.4884 47.2091 79.5536C47.1515 79.6079 47.1227 79.7328 47.1227 79.9284V81.9819H50.8243C51.0356 81.9819 51.2132 82.0253 51.3573 82.1122C51.5013 82.1992 51.6213 82.3132 51.7173 82.4545C51.8134 82.5957 51.8806 82.7533 51.919 82.9271C51.967 83.1009 51.991 83.2693 51.991 83.4323C51.991 83.5953 51.967 83.7637 51.919 83.9375C51.8806 84.1005 51.8134 84.2526 51.7173 84.3939C51.6309 84.5242 51.5109 84.6329 51.3573 84.7198C51.2132 84.7959 51.0356 84.8339 50.8243 84.8339H47.1227V89.7231H44.1556Z" fill="#CFCCC7"/>
<path d="M56.3776 81.6722H60.3097C60.5209 81.6722 60.6986 81.7157 60.8426 81.8026C60.9866 81.8895 61.1067 82.0036 61.2027 82.1448C61.2987 82.2861 61.3659 82.4436 61.4043 82.6175C61.4523 82.7804 61.4763 82.9434 61.4763 83.1064C61.4763 83.2693 61.4523 83.4323 61.4043 83.5953C61.3659 83.7583 61.2987 83.9104 61.2027 84.0516C61.1163 84.182 60.9962 84.2906 60.8426 84.3776C60.6986 84.4536 60.5209 84.4916 60.3097 84.4916H56.3776V86.3984C56.3776 86.594 56.4064 86.7244 56.464 86.7896C56.5216 86.8439 56.632 86.871 56.7953 86.871H60.5833C60.7946 86.871 60.9722 86.9145 61.1163 87.0014C61.2699 87.0775 61.3899 87.1861 61.4763 87.3274C61.5724 87.4577 61.6396 87.6098 61.678 87.7837C61.726 87.9467 61.75 88.1096 61.75 88.2726C61.75 88.4356 61.726 88.604 61.678 88.7778C61.6396 88.9517 61.5724 89.1092 61.4763 89.2504C61.3803 89.3917 61.2603 89.5058 61.1163 89.5927C60.9722 89.6796 60.7946 89.7231 60.5833 89.7231H55.6718C55.2397 89.7231 54.8797 89.6796 54.5916 89.5927C54.3035 89.4949 54.0731 89.3428 53.9002 89.1364C53.7274 88.9299 53.6026 88.6637 53.5257 88.3378C53.4585 88.0118 53.4249 87.6153 53.4249 87.1481V79.1787C53.4249 78.7115 53.4585 78.315 53.5257 77.989C53.6026 77.6631 53.7274 77.3969 53.9002 77.1905C54.0731 76.984 54.3035 76.8374 54.5916 76.7504C54.8797 76.6527 55.2397 76.6038 55.6718 76.6038H60.4393C60.6506 76.6038 60.8282 76.6472 60.9722 76.7341C61.1163 76.8211 61.2363 76.9351 61.3323 77.0764C61.4283 77.2176 61.4955 77.3752 61.534 77.549C61.582 77.7228 61.606 77.8912 61.606 78.0542C61.606 78.2172 61.582 78.3856 61.534 78.5594C61.4955 78.7224 61.4283 78.8745 61.3323 79.0158C61.2459 79.1461 61.1259 79.2548 60.9722 79.3417C60.8282 79.4178 60.6506 79.4558 60.4393 79.4558H56.7953C56.632 79.4558 56.5216 79.4884 56.464 79.5536C56.4064 79.6079 56.3776 79.7328 56.3776 79.9284V81.6722Z" fill="#CFCCC7"/>
</g>
<defs>
<filter id="filter0_d" x="0" y="0" width="85" height="98.0001" filterUnits="userSpaceOnUse" color-interpolation-filters="sRGB">
<feFlood flood-opacity="0" result="BackgroundImageFix"/>
<feColorMatrix in="SourceAlpha" type="matrix" values="0 0 0 0 0 0 0 0 0 0 0 0 0 0 0 0 0 0 127 0"/>
<feOffset dy="4"/>
<feGaussianBlur stdDeviation="2"/>
<feColorMatrix type="matrix" values="0 0 0 0 0 0 0 0 0 0 0 0 0 0 0 0 0 0 0.25 0"/>
<feBlend mode="normal" in2="BackgroundImageFix" result="effect1_dropShadow"/>
<feBlend mode="normal" in="SourceGraphic" in2="effect1_dropShadow" result="shape"/>
</filter>
</defs>
</svg>
