<svg width="98" height="81" viewBox="0 0 98 81" fill="none" xmlns="http://www.w3.org/2000/svg">
<g opacity="0.7" clip-path="url(#clip0)">
<path fill-rule="evenodd" clip-rule="evenodd" d="M6.5396 9.81818C6.5396 8.00498 8.00513 6.54545 9.8002 6.54545H46.1146L6.5396 28.988V9.81818ZM6.5396 29.4583V52.3636H91.4608V9.81818C91.4608 8.00498 89.9953 6.54545 88.2002 6.54545H46.944L6.5396 29.4583ZM49.0002 65.4545C49.8666 65.4545 50.6975 65.1097 51.3101 64.496C51.9227 63.8822 52.2669 63.0498 52.2669 62.1818C52.2669 61.5345 52.0753 60.9018 51.7163 60.3636C51.3574 59.8254 50.8472 59.4059 50.2503 59.1582C49.6534 58.9105 48.9966 58.8457 48.3629 58.972C47.7292 59.0983 47.1472 59.41 46.6903 59.8676C46.2335 60.3253 45.9224 60.9085 45.7963 61.5433C45.6703 62.1782 45.735 62.8362 45.9822 63.4342C46.2294 64.0322 46.6481 64.5434 47.1853 64.903C47.7225 65.2626 48.3541 65.4545 49.0002 65.4545ZM9.8002 0C4.37875 0 -0.00585938 4.40147 -0.00585938 9.81818V62.1818C-0.00585938 67.5985 4.37875 72 9.8002 72H40.4252L39.6085 78.5455H26.1335C24.6086 78.5455 23.3272 79.5884 22.9639 81H75.0365C74.6732 79.5884 73.3918 78.5455 71.8669 78.5455H58.3919L57.5752 72H88.2002C93.6217 72 98.0063 67.5985 98.0063 62.1818V9.81818C98.0063 4.40147 93.6217 0 88.2002 0H9.8002ZM48.5919 20.4545L56.018 24.75V33.3409L48.5919 37.6364L41.1657 33.3409V24.75L48.5919 20.4545Z" fill="#7D6F5D"/>
</g>
<defs>
<clipPath id="clip0">
<rect width="98" height="81" fill="white"/>
</clipPath>
</defs>
</svg>
