<svg width="33" height="55" viewBox="0 0 33 55" fill="none" xmlns="http://www.w3.org/2000/svg">
<g opacity="0.7" clip-path="url(#clip0)">
<path fill-rule="evenodd" clip-rule="evenodd" d="M27.5 0.247803H5.5C4.04131 0.247803 2.64236 0.822045 1.61091 1.8442C0.579462 2.86636 0 4.2527 0 5.69825V49.3019C0 50.7474 0.579462 52.1338 1.61091 53.1559C2.64236 54.1781 4.04131 54.7523 5.5 54.7523H27.5C28.9587 54.7523 30.3576 54.1781 31.3891 53.1559C32.4205 52.1338 33 50.7474 33 49.3019V5.69825C33 4.2527 32.4205 2.86636 31.3891 1.8442C30.3576 0.822045 28.9587 0.247803 27.5 0.247803ZM29 47.3739C29 48.986 27.6932 50.2928 26.0811 50.2928H6.91892C5.30684 50.2928 4 48.986 4 47.3739V26.1069L29 10.7064V47.3739ZM29 10.2779L4 25.6784V7.62618C4 6.01411 5.30685 4.70726 6.91892 4.70726H26.0811C27.6932 4.70726 29 6.01411 29 7.62618V10.2779ZM19.697 25.0843L16.1247 23.0404L12.5523 25.0843V29.1722L16.1247 31.2161L19.697 29.1722V25.0843Z" fill="#7D6F5D"/>
</g>
<defs>
<clipPath id="clip0">
<rect width="33" height="55" fill="white"/>
</clipPath>
</defs>
</svg>
