<svg width="262" height="446" viewBox="0 0 262 446" fill="none" xmlns="http://www.w3.org/2000/svg">
<path d="M112.634 445.8C107.034 445.8 101.434 445.4 95.8344 444.6C90.6344 444.2 85.2344 443.6 79.6344 442.8C74.8344 442 69.8344 441 64.6344 439.8C59.8344 438.6 55.2344 437 50.8344 435C46.0344 433.4 41.4344 431.8 37.0344 430.2C33.0344 428.6 29.0344 426.8 25.0344 424.8C21.0344 422.8 17.4344 420.8 14.2344 418.8C11.0344 416.8 8.03438 414.8 5.23438 412.8L0.434376 408.6L12.4344 393C13.6344 393.8 15.0344 394.8 16.6344 396C19.0344 398 22.4344 400 26.8344 402C29.2344 403.6 32.0344 405.2 35.2344 406.8C38.4344 408 42.0344 409.6 46.0344 411.6C50.0344 413.6 54.4344 415.4 59.2344 417C64.0344 418.2 69.0344 419.6 74.2344 421.2C85.0344 424 97.8344 425.4 112.634 425.4C121.434 425.4 129.834 424.8 137.834 423.6C146.234 422 154.434 420 162.434 417.6C170.434 414.4 177.634 410.8 184.034 406.8C190.834 402.8 197.034 398.4 202.634 393.6C214.634 382.4 223.834 369 230.234 353.4C237.434 336.6 241.034 318 241.034 297.6C241.034 281.2 238.634 265.8 233.834 251.4C231.434 244.6 228.434 238.2 224.834 232.2C221.234 226.2 217.034 220.8 212.234 216C202.234 206 189.834 198 175.034 192C151.434 183.2 120.234 181.2 81.4344 186C74.6344 187.2 67.4344 188.6 59.8344 190.2C52.6344 191.4 44.8344 193.2 36.4344 195.6H34.6344L22.6344 190.8L56.8344 -1.14441e-05H251.234V19.2H73.0344L45.4344 174C51.8344 172.8 57.8344 171.6 63.4344 170.4C69.0344 169.2 74.6344 168.2 80.2344 167.4C100.234 165 118.634 164.4 135.434 165.6C152.234 166.4 167.634 169.4 181.634 174.6C198.434 181 213.034 190.2 225.434 202.2C237.434 213.4 246.434 227.6 252.434 244.8C258.434 261.2 261.434 279 261.434 298.2C261.434 321.8 257.234 342.6 248.834 360.6C245.234 369.8 240.634 378.2 235.034 385.8C229.434 393.4 223.234 400.4 216.434 406.8C203.634 419.2 188.034 428.8 169.634 435.6C150.434 442.4 131.434 445.8 112.634 445.8Z" fill="#B68C70" fill-opacity="0.08"/>
</svg>
