<svg width="160" height="30" viewBox="0 0 160 30" fill="none" xmlns="http://www.w3.org/2000/svg">
<path d="M14.4 0L17.633 9.95016H28.0952L19.6311 16.0997L22.8641 26.0498L14.4 19.9003L5.93589 26.0498L9.1689 16.0997L0.704788 9.95016H11.167L14.4 0Z" fill="#FFFCF9"/>
<path d="M47.5 0L50.7555 10.0193L61.2903 10.0193L52.7674 16.2115L56.0229 26.2307L47.5 20.0385L38.9771 26.2307L42.2326 16.2115L33.7097 10.0193L44.2445 10.0193L47.5 0Z" fill="#FFFCF9"/>
<path d="M80.5 0L83.7555 10.0193L94.2903 10.0193L85.7674 16.2115L89.0229 26.2307L80.5 20.0385L71.9771 26.2307L75.2326 16.2115L66.7097 10.0193L77.2445 10.0193L80.5 0Z" fill="#FFFCF9"/>
<path d="M112.5 0L115.755 10.0193L126.29 10.0193L117.767 16.2115L121.023 26.2307L112.5 20.0385L103.977 26.2307L107.233 16.2115L98.7097 10.0193L109.245 10.0193L112.5 0Z" fill="#FFFCF9"/>
<path d="M145.5 0L148.755 10.0193L159.29 10.0193L150.767 16.2115L154.023 26.2307L145.5 20.0385L136.977 26.2307L140.233 16.2115L131.71 10.0193L142.245 10.0193L145.5 0Z" fill="#FFFCF9"/>
</svg>
